<svg xmlns="http://www.w3.org/2000/svg" xmlns:xlink="http://www.w3.org/1999/xlink" version="1.1" id="Layer_1" x="0px" y="0px" width="100px" height="100px" viewBox="0 0 100 100" enable-background="new 0 0 100 100" xml:space="preserve">
<path d="M87,77.88c0,4.652-1.279,8.326-3.835,11.021c-2.557,2.695-5.955,4.043-10.193,4.043H60.401  c2.531-2.52,4.099-6.007,4.099-9.861c0-7.686-6.231-13.917-13.917-13.917c-7.686,0-13.917,6.231-13.917,13.917  c0,3.854,1.568,7.341,4.099,9.861H27.054c-4.238,0-7.124-1.734-8.769-3.569c-7.113-7.938-4.707-21.587-4.339-23.855  c0.367-2.269,0.831-4.371,1.392-6.311c0.56-1.938,1.313-3.829,2.259-5.671c0.946-1.842,2.031-3.412,3.258-4.711  c1.226-1.299,2.723-2.336,4.492-3.112c1.768-0.775,3.721-1.164,5.858-1.164c0.315,0,1.051,0.417,2.207,1.251  c1.156,0.834,2.46,1.765,3.914,2.792c1.453,1.028,3.344,1.959,5.674,2.792c2.329,0.834,4.667,1.251,7.014,1.251  c2.346,0,4.683-0.417,7.014-1.251c2.329-0.833,4.22-1.764,5.674-2.792c1.453-1.027,2.758-1.958,3.914-2.792  c1.156-0.833,1.891-1.251,2.207-1.251c2.136,0,4.089,0.388,5.858,1.164c1.768,0.776,3.266,1.813,4.492,3.112  c1.225,1.299,2.312,2.87,3.258,4.711s1.698,3.732,2.259,5.671c0.56,1.939,1.024,4.042,1.392,6.311s0.612,4.383,0.736,6.34  C86.938,73.818,87,75.824,87,77.88z M50,3.604c-5.832,0-10.811,2.181-14.936,6.543s-6.189,9.626-6.189,15.792  s2.063,11.429,6.189,15.792S44.169,48.274,50,48.274s10.81-2.181,14.936-6.543s6.189-9.626,6.189-15.792s-2.063-11.429-6.189-15.792  S55.832,3.604,50,3.604z M57.179,71.563c-2.039-1.19-4.265-1.785-6.68-1.785c-2.413,0-4.639,0.595-6.678,1.785  s-3.653,2.803-4.844,4.842c-1.19,2.039-1.784,4.265-1.784,6.679c0,2.414,0.594,4.64,1.784,6.679c1.19,2.039,2.805,3.652,4.844,4.842  c2.039,1.189,4.265,1.784,6.678,1.784c2.415,0,4.641-0.595,6.68-1.784c2.036-1.19,3.651-2.803,4.841-4.842  c1.19-2.039,1.786-4.265,1.786-6.679c0-2.414-0.596-4.64-1.786-6.679C60.83,74.366,59.216,72.753,57.179,71.563z M56.937,81.161  c-0.147,0.427-0.306,0.777-0.485,1.047c-0.179,0.272-0.437,0.55-0.771,0.833c-0.336,0.283-0.601,0.485-0.798,0.606  s-0.48,0.286-0.849,0.493c-0.382,0.22-0.695,0.507-0.945,0.858c-0.248,0.352-0.371,0.639-0.371,0.858  c0,0.162-0.053,0.294-0.157,0.399c-0.104,0.104-0.235,0.155-0.397,0.155h-3.328c-0.162,0-0.296-0.052-0.399-0.155  c-0.104-0.105-0.154-0.238-0.154-0.399v-0.624c0-0.773,0.303-1.498,0.91-2.174s1.273-1.175,2.001-1.498  c0.553-0.254,0.945-0.514,1.177-0.779c0.23-0.265,0.346-0.618,0.346-1.057c0-0.38-0.217-0.721-0.649-1.022  c-0.435-0.299-0.927-0.45-1.481-0.45c-0.601,0-1.099,0.138-1.491,0.416c-0.382,0.277-0.879,0.809-1.491,1.593  c-0.104,0.139-0.248,0.208-0.432,0.208c-0.139,0-0.25-0.034-0.331-0.104l-2.287-1.733c-0.265-0.207-0.311-0.45-0.139-0.728  c1.481-2.46,3.623-3.69,6.428-3.69c1.006,0,1.988,0.237,2.946,0.71c0.96,0.474,1.759,1.145,2.4,2.01  c0.642,0.867,0.96,1.808,0.96,2.825C57.151,80.266,57.081,80.733,56.937,81.161z M52.56,91.798  c-0.104,0.104-0.235,0.157-0.397,0.157h-3.328c-0.162,0-0.296-0.053-0.399-0.157c-0.104-0.104-0.154-0.236-0.154-0.398v-3.326  c0-0.162,0.051-0.296,0.154-0.399c0.104-0.104,0.237-0.155,0.399-0.155h3.328c0.162,0,0.293,0.052,0.397,0.155  c0.104,0.104,0.157,0.237,0.157,0.399V91.4C52.717,91.562,52.664,91.695,52.56,91.798z"/>
</svg>